<svg width="155" height="31" viewBox="0 0 155 31" fill="none" xmlns="http://www.w3.org/2000/svg">
<path d="M8.68 30.68C7.18667 30.68 5.70667 30.4933 4.24 30.12C2.77333 29.7467 1.52 29.2267 0.48 28.56L0.72 22.8H3.8L4.6 27.64C5.21333 27.9067 5.84 28.12 6.48 28.28C7.12 28.4133 7.84 28.48 8.64 28.48C10.2933 28.48 11.5867 28.0933 12.52 27.32C13.48 26.52 13.96 25.4667 13.96 24.16C13.96 22.9867 13.6267 22.0667 12.96 21.4C12.2933 20.7333 11.2267 20.1067 9.76 19.52L8.12 18.84C5.93333 17.9067 4.18667 16.7867 2.88 15.48C1.6 14.1733 0.96 12.4667 0.96 10.36C0.96 8.78667 1.36 7.44 2.16 6.32C2.96 5.17333 4.06667 4.30667 5.48 3.72C6.92 3.10667 8.57333 2.8 10.44 2.8C11.8267 2.8 13.12 2.98667 14.32 3.36C15.52 3.73333 16.5733 4.24 17.48 4.88L17.2 10.28H14.16L13.36 5.64C12.4267 5.21333 11.4267 5 10.36 5C9.02667 5 7.89333 5.36 6.96 6.08C6.02667 6.77333 5.56 7.77333 5.56 9.08C5.56 10.2267 5.92 11.16 6.64 11.88C7.36 12.6 8.37333 13.2267 9.68 13.76L11.4 14.48C14.0133 15.5733 15.8667 16.7467 16.96 18C18.08 19.2533 18.64 20.8667 18.64 22.84C18.64 25.1867 17.7467 27.08 15.96 28.52C14.2 29.96 11.7733 30.68 8.68 30.68ZM28.1041 30.56C26.5041 30.56 25.2507 30.16 24.3441 29.36C23.4374 28.56 22.9841 27.28 22.9841 25.52C22.9841 24.9067 22.9841 24.3333 22.9841 23.8C23.0107 23.24 23.0241 22.5733 23.0241 21.8V13.28H20.0641V11.2L23.3041 10.8L24.8241 5.32H28.0641L27.9041 10.84H32.7041V13.28H27.8641V25.08C27.8641 26.0667 28.0507 26.7867 28.4241 27.24C28.8241 27.6933 29.3441 27.92 29.9841 27.92C30.7041 27.92 31.5174 27.5867 32.4241 26.92L33.3841 27.92C32.8774 28.7467 32.1841 29.4 31.3041 29.88C30.4241 30.3333 29.3574 30.56 28.1041 30.56ZM49.8969 30.48C48.8302 30.48 47.9635 30.2133 47.2969 29.68C46.6302 29.1467 46.1769 28.4133 45.9369 27.48C44.9502 28.4933 44.0569 29.2667 43.2569 29.8C42.4569 30.3067 41.4169 30.56 40.1369 30.56C38.6435 30.56 37.3769 30.1333 36.3369 29.28C35.3235 28.4 34.8169 27.1467 34.8169 25.52C34.8169 24.6667 35.0169 23.88 35.4169 23.16C35.8169 22.4133 36.5235 21.72 37.5369 21.08C38.5769 20.44 40.0569 19.8133 41.9769 19.2C42.5102 19.0133 43.1102 18.8267 43.7769 18.64C44.4435 18.4533 45.1235 18.2667 45.8169 18.08V16.96C45.8169 15.0933 45.5502 13.84 45.0169 13.2C44.5102 12.5333 43.6035 12.2 42.2969 12.2C42.0569 12.2 41.7902 12.2133 41.4969 12.24C41.2302 12.2667 40.9502 12.3067 40.6569 12.36L40.1769 14.56C40.0702 15.52 39.7902 16.2267 39.3369 16.68C38.8835 17.1333 38.3235 17.36 37.6569 17.36C36.3769 17.36 35.6302 16.76 35.4169 15.56C35.6569 13.96 36.5102 12.68 37.9769 11.72C39.4702 10.76 41.4302 10.28 43.8569 10.28C46.1769 10.28 47.8702 10.84 48.9369 11.96C50.0035 13.0533 50.5369 14.9067 50.5369 17.52V26.24C50.5369 27.44 50.9235 28.04 51.6969 28.04C52.2035 28.04 52.6702 27.7467 53.0969 27.16L54.0169 27.96C53.5369 28.8667 52.9635 29.52 52.2969 29.92C51.6569 30.2933 50.8569 30.48 49.8969 30.48ZM39.4969 24.68C39.4969 25.72 39.7635 26.48 40.2969 26.96C40.8569 27.4133 41.5369 27.64 42.3369 27.64C42.7902 27.64 43.2435 27.5333 43.6969 27.32C44.1502 27.1067 44.8569 26.6667 45.8169 26V19.68C45.2569 19.8667 44.7235 20.04 44.2169 20.2C43.7369 20.36 43.3235 20.5067 42.9769 20.64C41.6435 21.1733 40.7235 21.7867 40.2169 22.48C39.7369 23.1733 39.4969 23.9067 39.4969 24.68ZM55.3209 30V28.36L57.9209 27.84C57.9476 26.8533 57.9609 25.7867 57.9609 24.64C57.9609 23.4667 57.9609 22.4533 57.9609 21.6V19.48C57.9609 18.3867 57.9476 17.52 57.9209 16.88C57.9209 16.2133 57.8943 15.48 57.8409 14.68L55.0409 14.32V12.8L61.7209 10.28L62.3609 10.68L62.6409 13.76C64.6943 11.44 66.9609 10.28 69.4409 10.28C71.1743 10.28 72.5076 10.8533 73.4409 12C74.4009 13.1467 74.8809 14.96 74.8809 17.44V21.6C74.8809 22.5067 74.8809 23.5333 74.8809 24.68C74.8809 25.8267 74.8943 26.8933 74.9209 27.88L77.3609 28.36V30H67.4809V28.36L70.0409 27.84C70.0676 26.8533 70.0809 25.8 70.0809 24.68C70.0809 23.5333 70.0809 22.5067 70.0809 21.6V17.8C70.0809 16.2267 69.8676 15.1467 69.4409 14.56C69.0143 13.9467 68.2943 13.64 67.2809 13.64C65.8676 13.64 64.3743 14.2933 62.8009 15.6V21.6C62.8009 22.48 62.8009 23.4933 62.8009 24.64C62.8009 25.7867 62.8143 26.8667 62.8409 27.88L65.2009 28.36V30H55.3209ZM79.7341 30V28.36L82.4141 27.84C82.4407 26.8 82.4541 25.76 82.4541 24.72C82.4807 23.68 82.4941 22.64 82.4941 21.6V13.28H79.5341V11.2L82.6141 10.8C82.8274 8.82667 83.1474 7.24 83.5741 6.04C84.0274 4.81333 84.7207 3.73333 85.6541 2.8C86.5607 1.89333 87.5474 1.25333 88.6141 0.879998C89.7074 0.479999 90.7607 0.279999 91.7741 0.279999C92.8141 0.279999 93.7341 0.466665 94.5341 0.839999C95.3607 1.21333 95.8807 1.86667 96.0941 2.8C96.0674 3.41333 95.8141 3.93333 95.3341 4.36C94.8807 4.78667 94.2541 5 93.4541 5C92.3074 5 91.2274 4.33333 90.2141 3L89.4941 2.28C89.4141 2.33333 89.3207 2.41333 89.2141 2.52C88.4941 3.24 87.9741 4.25333 87.6541 5.56C87.3341 6.86667 87.2007 8.62667 87.2541 10.84H92.1741V13.28H87.3341V21.6C87.3341 22.6133 87.3341 23.64 87.3341 24.68C87.3607 25.6933 87.3874 26.72 87.4141 27.76L90.7741 28.36V30H79.7341ZM103.362 30.56C101.549 30.56 99.9089 30.16 98.4422 29.36C97.0022 28.56 95.8555 27.4 95.0022 25.88C94.1489 24.36 93.7222 22.5467 93.7222 20.44C93.7222 18.3067 94.1622 16.48 95.0422 14.96C95.9489 13.44 97.1355 12.28 98.6022 11.48C100.069 10.68 101.656 10.28 103.362 10.28C105.069 10.28 106.656 10.68 108.122 11.48C109.589 12.28 110.776 13.44 111.682 14.96C112.589 16.4533 113.042 18.28 113.042 20.44C113.042 22.5733 112.602 24.4 111.722 25.92C110.869 27.4133 109.709 28.56 108.242 29.36C106.802 30.16 105.176 30.56 103.362 30.56ZM103.362 28.6C104.802 28.6 105.896 27.9333 106.642 26.6C107.416 25.2667 107.802 23.2267 107.802 20.48C107.802 14.9867 106.322 12.24 103.362 12.24C100.429 12.24 98.9622 14.9867 98.9622 20.48C98.9622 23.2267 99.3355 25.2667 100.082 26.6C100.829 27.9333 101.922 28.6 103.362 28.6ZM115.908 30V28.36L118.468 27.88C118.494 26.8667 118.508 25.7867 118.508 24.64C118.508 23.4667 118.508 22.4533 118.508 21.6V19.48C118.508 18.3867 118.494 17.52 118.468 16.88C118.468 16.2133 118.441 15.48 118.388 14.68L115.588 14.32V12.8L122.268 10.28L122.908 10.68L123.308 15.4C123.921 13.7467 124.748 12.48 125.788 11.6C126.828 10.72 127.868 10.28 128.908 10.28C129.628 10.28 130.281 10.4667 130.868 10.84C131.481 11.2133 131.881 11.7467 132.068 12.44C132.041 13.4267 131.801 14.2 131.348 14.76C130.894 15.2933 130.268 15.56 129.468 15.56C128.508 15.56 127.601 15.08 126.748 14.12L126.388 13.72C124.974 14.8933 123.961 16.5467 123.348 18.68V21.6C123.348 22.4267 123.348 23.4133 123.348 24.56C123.348 25.68 123.361 26.7333 123.388 27.72L126.668 28.36V30H115.908ZM138.295 20.52C138.295 22.9467 138.749 24.76 139.655 25.96C140.589 27.1333 141.762 27.72 143.175 27.72C143.869 27.72 144.495 27.5867 145.055 27.32C145.642 27.0267 146.189 26.6133 146.695 26.08V14.6C145.522 13.5867 144.362 13.08 143.215 13.08C141.882 13.08 140.722 13.68 139.735 14.88C138.775 16.08 138.295 17.96 138.295 20.52ZM147.175 30.44L146.855 27.92C146.109 28.7733 145.282 29.4267 144.375 29.88C143.469 30.3333 142.429 30.56 141.255 30.56C139.682 30.56 138.282 30.16 137.055 29.36C135.855 28.56 134.909 27.4133 134.215 25.92C133.522 24.4267 133.175 22.6533 133.175 20.6C133.175 18.4933 133.562 16.6667 134.335 15.12C135.135 13.5733 136.189 12.3867 137.495 11.56C138.829 10.7067 140.282 10.28 141.855 10.28C142.869 10.28 143.775 10.4667 144.575 10.84C145.402 11.2133 146.175 11.8267 146.895 12.68V4.44L143.775 4.04V2.48L151.095 0.679998L151.695 1.04L151.535 6.68V27.92L154.135 28.36V30L147.175 30.44Z" fill="#8C1515"/>
</svg>
